<svg width="24" height="24" viewBox="0 0 24 24" fill="none" xmlns="http://www.w3.org/2000/svg">
<path d="M3.12968 3.07978C3.99968 2.19978 5.87964 1.57025 9.83964 3.56025L18.4002 7.83954C20.53 8.8995 21.6999 10.3798 21.7 11.9997C21.7 13.6197 20.5298 15.0999 18.41 16.1599L9.8494 20.4401C7.90972 21.4099 6.46986 21.7497 5.40995 21.7497C4.28995 21.7497 3.57968 21.3696 3.12968 20.9196C2.24975 20.0396 1.63025 18.1697 3.61014 14.1999L4.33866 12.7497H9.15018C9.56001 12.7495 9.90018 12.4096 9.90018 11.9997C9.90012 11.5899 9.55997 11.2499 9.15018 11.2497H4.33866L3.61014 9.7995C1.62021 5.82958 2.24968 3.94977 3.12968 3.07978Z" fill="#699BF7"/>
</svg>
